# This file uses centimeters as units for non-parametric coordinates.

mtllib Tape.mtl
g default
v 616.539116 54.430585 386.206323
v 612.613035 54.430606 386.205740
v 616.539116 44.613324 386.206323
v 612.613035 44.613305 386.205740
v 616.538835 51.589005 387.894535
v 616.538895 47.454909 387.894535
v 612.612815 47.454909 387.893952
v 612.612755 51.588984 387.893952
v 616.539116 52.333797 386.206323
v 612.613005 52.333797 386.205740
v 616.539116 46.710076 386.206323
v 612.613005 46.710088 386.205740
v 616.538670 50.639425 389.010326
v 616.538730 48.404463 389.010317
v 612.612649 48.404463 389.009743
v 612.612619 50.639451 389.009734
v 616.321638 54.430586 386.206291
v 615.427544 54.430591 386.206158
v 614.002687 54.430598 386.205946
v 613.571985 54.430601 386.205882
v 613.121521 53.920331 386.205815
v 614.986342 53.134987 386.206092
v 614.422255 53.780785 386.206009
v 614.153511 53.448798 386.205969
v 615.889251 53.794127 386.206226
v 616.101778 44.613322 386.206258
v 614.898199 44.613317 386.206079
v 614.552837 44.613315 386.206028
v 612.792363 44.613306 386.205766
v 613.071177 45.206189 386.205808
v 613.306863 44.947523 386.205843
v 613.524592 45.944435 386.205875
v 613.853841 45.015592 386.205924
v 614.092075 45.425399 386.205960
v 615.171865 45.501878 386.206120
v 615.369885 45.031379 386.206149
v 615.726766 44.934837 386.206202
v 616.278082 44.944338 386.206284
vt 0.629771 0.690806
vt 0.629764 0.972528
vt 0.369320 0.972378
vt 0.629794 0.033254
vt 0.369343 0.314830
vt 0.369350 0.033108
vt 0.369344 0.197384
vt 0.629791 0.197532
vt 0.369325 0.808105
vt 0.629771 0.808252
vt 0.369327 0.690657
vt 0.629774 0.590443
vt 0.369339 0.415194
vt 0.629787 0.314979
vt 0.369330 0.590296
vt 0.629782 0.415339
vt 0.383777 0.033116
vt 0.443088 0.033149
vt 0.537609 0.033203
vt 0.566180 0.033219
vt 0.596062 0.073214
vt 0.472353 0.134672
vt 0.509774 0.084097
vt 0.527601 0.110118
vt 0.412458 0.082997
vt 0.398331 0.972395
vt 0.478173 0.972441
vt 0.501083 0.972454
vt 0.617868 0.972522
vt 0.599374 0.926061
vt 0.583738 0.946317
vt 0.569297 0.868204
vt 0.547454 0.940964
vt 0.531651 0.908848
vt 0.460021 0.902815
vt 0.446884 0.939669
vt 0.423209 0.947220
vt 0.386637 0.946454
vn -0.000123 -0.566157 0.824297
vn -0.000123 -0.566130 0.824316
vn -0.000149 0.000000 1.000000
vn -0.000149 0.000000 1.000000
vn -0.000149 0.000000 1.000000
vn -0.000149 0.000000 1.000000
vn -0.000149 0.000000 1.000000
vn -0.000149 0.000000 1.000000
vn -0.000149 0.000000 1.000000
vn -0.000149 0.000000 1.000000
vn -0.000149 0.000000 1.000000
vn -0.000149 0.000000 1.000000
vn -0.000149 0.000000 1.000000
vn -0.000149 0.000000 1.000000
vn -0.000149 0.000000 1.000000
vn -0.000149 0.000000 1.000000
vn -0.000149 0.000000 1.000000
vn -0.000123 0.572203 0.820112
vn -0.000123 0.572224 0.820097
vn -0.000078 0.855880 0.517174
vn -0.000078 0.855880 0.517174
vn -0.000077 -0.855874 0.517185
vn -0.000140 -0.330681 0.943743
vn -0.000140 -0.330662 0.943749
vn -0.000077 -0.855879 0.517177
vn -0.000149 0.000000 1.000000
vn -0.000149 0.000000 1.000000
vn -0.000149 0.000000 1.000000
vn -0.000149 0.000000 1.000000
vn -0.000149 0.000000 1.000000
vn -0.000149 0.000000 1.000000
vn -0.000149 0.000000 1.000000
vn -0.000149 0.000000 1.000000
vn -0.000149 0.000000 1.000000
vn -0.000149 0.000000 1.000000
vn -0.000149 0.000000 1.000000
vn -0.000140 0.330685 0.943741
vn -0.000140 0.330654 0.943752
s 1
g pPlane4
usemtl lambert10SG
f 11/9/1 12/10/2 4/2/3 29/29/4 30/30/5 31/31/6 32/32/7 33/33/8 34/34/9 28/28/10 27/27/11 35/35/12 36/36/13 37/37/14 26/26/15 38/38/16 3/3/17
f 9/7/18 10/8/19 8/14/20 5/5/21
f 6/11/22 14/15/23 15/12/24 7/1/25
f 2/4/26 10/8/19 9/7/18 1/6/27 17/17/28 25/25/29 18/18/30 22/22/31 23/23/32 24/24/33 19/19/34 20/20/35 21/21/36
f 6/11/22 7/1/25 12/10/2 11/9/1
f 16/16/37 13/13/38 5/5/21 8/14/20
f 14/15/23 13/13/38 16/16/37 15/12/24
